<svg xmlns="http://www.w3.org/2000/svg" viewBox="0 0 64 64">
  <rect width="64" height="64" rx="14" fill="#059669"/>
  <path fill="#ecfdf5" d="M15 24.5A7.5 7.5 0 0 1 22.5 17h19A7.5 7.5 0 0 1 49 24.5v21A7.5 7.5 0 0 1 41.5 53h-19A7.5 7.5 0 0 1 15 45.5v-21Z"/>
  <path fill="#047857" d="M20 27a4 4 0 0 1 4-4h16a4 4 0 0 1 4 4v4H20v-4Z"/>
  <path fill="#10b981" d="M20 34h24v10a4 4 0 0 1-4 4H24a4 4 0 0 1-4-4V34Z"/>
  <circle cx="32" cy="41" r="5" fill="#fbbf24"/>
  <path fill="#047857" d="M30.5 39.8c0-.7.5-1.3 1.2-1.5V37h1.2v1.2c.8.1 1.5.5 2 1l-.9 1c-.5-.5-1-.7-1.7-.7-.4 0-.6.2-.6.4 0 .8 3.4.5 3.4 2.7 0 .9-.6 1.6-1.7 1.9V46h-1.2v-1.3c-1-.1-1.9-.6-2.5-1.3l.9-.9c.6.6 1.2.9 2.1.9.5 0 .8-.2.8-.5 0-.9-3.4-.5-3.4-3.1Z"/>
  <path fill="#f97316" d="M37.5 11.1c2.3 3 2.3 6.4.4 8.4-1.5 1.6-4.2 1.7-6.2.4-2.1-1.4-2.5-4-1.3-6.2.8-1.5 2.4-2.7 4.9-3.7-.4 1.7-.2 3.1.5 4.1.5-.9 1.1-1.9 1.7-3Z"/>
  <path fill="#fed7aa" d="M34.1 15.2c1.3 1.2 1.8 2.8.9 3.7-.7.7-1.8.7-2.6.1-.9-.7-.9-1.8-.3-2.7.4-.5 1-.9 2-1.1Z"/>
</svg>
